<?xml version="1.0" encoding="UTF-8"?>
<svg id="Layer_2" data-name="Layer 2" xmlns="http://www.w3.org/2000/svg" viewBox="0 0 664.39 487.39">
  <defs>
    <style>
      .cls-1 {
        fill: #333;
      }
    </style>
  </defs>
  <g id="Layer_1-2" data-name="Layer 1">
    <g>
      <g>
        <g>
          <polygon class="cls-1" points="126.95 487.38 126.72 383.82 90.82 487.36 66.08 487.34 30.18 384.73 30.04 487.36 .06 487.36 .06 341.71 45.16 341.71 79.38 442.19 111.76 341.71 156.86 341.71 156.86 487.35 126.95 487.38"/>
          <path class="cls-1" d="M449.22,396.84c2.64,17.7,1.33,37.51-5.71,54.14-6.81,16.09-19.84,27.95-36.46,33.28-6.46,1.81-12.67,3.07-19.58,3.07l-65.84.02v-145.64s64.89.01,64.89.01c8.85,0,16.92,1.8,25.04,4.77,21.65,8.36,34.31,27.85,37.66,50.34ZM414.6,391.47c-3.76-10.38-11.63-17.86-22.26-20.81-5.21-1.42-10.4-2-15.87-1.99l-22.84.04v91.67s28.63.01,28.63.01c6.25,0,12.13-1.35,17.62-4.1,6.84-3.78,11.58-9.71,14.6-16.91,5.55-13.21,4.9-34.73.12-47.91Z"/>
          <polygon class="cls-1" points="289.94 424.81 219.37 424.81 219.38 460.39 297.86 460.39 297.87 487.37 187.39 487.36 187.37 341.73 296.17 341.7 296.23 368.68 219.36 368.7 219.39 399.89 289.93 399.88 289.94 424.81"/>
        </g>
        <g>
          <rect class="cls-1" x="475.01" y="341.71" width="32.03" height="145.66"/>
          <path class="cls-1" d="M620.04,454.98l-54.37-.04-11.45,32.45-32.23-.07,55-145.6h32.91s54.39,145.6,54.39,145.6l-33.28.06-10.97-32.39ZM611.64,431.05l-18.48-53.64-19.16,53.67,37.64-.03Z"/>
        </g>
      </g>
      <g>
        <polygon class="cls-1" points="343.5 324.65 240.78 324.7 128.77 178.85 81.89 220.08 81.89 324.66 0 324.56 0 .06 81.87 .06 81.91 134.52 227.3 0 329.42 .1 184.1 128.3 343.5 324.65"/>
        <polygon class="cls-1" points="664.39 264.74 664.36 324.73 462.89 324.71 337.82 .99 338.19 .17 423.07 .17 524.84 264.8 664.39 264.74"/>
        <polygon class="cls-1" points="271.08 79.15 232.26 174.01 195.64 129.06 215.64 111.4 245.77 84.85 275.6 58.54 306.23 31.55 331.96 9 452.57 323.79 452.23 324.65 367.97 324.67 339.86 252.51 295.87 252.47 252.8 199.36 318.43 199.19 271.08 79.15"/>
        <path class="cls-1" d="M171.56,324.64l-81.13.02c-.47-.69-.47-1.34-.24-2.36l49.05-115.04,52.24,67.92-19.92,49.46Z"/>
      </g>
    </g>
  </g>
</svg>